<mxfile host="app.diagrams.net" modified="2024-02-17T12:41:16.386Z" agent="Mozilla/5.0 (Windows NT 10.0; Win64; x64) AppleWebKit/537.36 (KHTML, like Gecko) Chrome/121.0.0.0 Safari/537.36 OPR/107.0.0.0" etag="YOx4HSkhGnzxdeBVm0Wa" version="23.1.5" type="device">
  <diagram name="PÃ¡gina-1" id="proA-QGNsvPLXwBLb34n">
    <mxGraphModel dx="1683" dy="924" grid="1" gridSize="10" guides="1" tooltips="1" connect="1" arrows="1" fold="1" page="1" pageScale="1" pageWidth="827" pageHeight="1169" math="0" shadow="0">
      <root>
        <mxCell id="0" />
        <mxCell id="1" parent="0" />
        <mxCell id="r2QPJSlHGdGXuVaun9jG-79" value="" style="group" vertex="1" connectable="0" parent="1">
          <mxGeometry x="150" y="400" width="140" height="320" as="geometry" />
        </mxCell>
        <mxCell id="r2QPJSlHGdGXuVaun9jG-77" value="Registrados" style="shape=rect;html=1;verticalAlign=top;fontStyle=1;whiteSpace=wrap;align=center;" vertex="1" parent="r2QPJSlHGdGXuVaun9jG-79">
          <mxGeometry width="140" height="320" as="geometry" />
        </mxCell>
        <mxCell id="r2QPJSlHGdGXuVaun9jG-1" value="Usuario" style="shape=umlActor;verticalLabelPosition=bottom;verticalAlign=top;html=1;outlineConnect=0;" vertex="1" parent="r2QPJSlHGdGXuVaun9jG-79">
          <mxGeometry x="50" y="50" width="30" height="60" as="geometry" />
        </mxCell>
        <mxCell id="r2QPJSlHGdGXuVaun9jG-3" value="Protectora&lt;br&gt;Validada" style="shape=umlActor;verticalLabelPosition=bottom;verticalAlign=top;html=1;outlineConnect=0;" vertex="1" parent="r2QPJSlHGdGXuVaun9jG-79">
          <mxGeometry x="50" y="200" width="30" height="60" as="geometry" />
        </mxCell>
        <mxCell id="r2QPJSlHGdGXuVaun9jG-16" value="Enviar aviso&lt;br&gt;a protectora" style="ellipse;whiteSpace=wrap;html=1;" vertex="1" parent="1">
          <mxGeometry x="480" y="220" width="140" height="70" as="geometry" />
        </mxCell>
        <mxCell id="r2QPJSlHGdGXuVaun9jG-17" value="" style="edgeStyle=none;html=1;endArrow=none;verticalAlign=bottom;rounded=0;" edge="1" parent="1" source="r2QPJSlHGdGXuVaun9jG-1" target="r2QPJSlHGdGXuVaun9jG-16">
          <mxGeometry width="160" relative="1" as="geometry">
            <mxPoint x="170" y="335" as="sourcePoint" />
            <mxPoint x="295" y="376" as="targetPoint" />
          </mxGeometry>
        </mxCell>
        <mxCell id="r2QPJSlHGdGXuVaun9jG-27" value="Ver estado animal" style="ellipse;whiteSpace=wrap;html=1;" vertex="1" parent="1">
          <mxGeometry x="480" y="380" width="140" height="70" as="geometry" />
        </mxCell>
        <mxCell id="r2QPJSlHGdGXuVaun9jG-37" value="Recibir&lt;br&gt;datos animal" style="ellipse;whiteSpace=wrap;html=1;" vertex="1" parent="1">
          <mxGeometry x="420" y="650" width="140" height="70" as="geometry" />
        </mxCell>
        <mxCell id="r2QPJSlHGdGXuVaun9jG-29" value="" style="edgeStyle=none;html=1;endArrow=none;verticalAlign=bottom;rounded=0;" edge="1" parent="1" source="r2QPJSlHGdGXuVaun9jG-1" target="r2QPJSlHGdGXuVaun9jG-27">
          <mxGeometry width="160" relative="1" as="geometry">
            <mxPoint x="210" y="300" as="sourcePoint" />
            <mxPoint x="370" y="300" as="targetPoint" />
          </mxGeometry>
        </mxCell>
        <mxCell id="r2QPJSlHGdGXuVaun9jG-38" value="" style="edgeStyle=none;html=1;endArrow=none;verticalAlign=bottom;rounded=0;" edge="1" parent="1" source="r2QPJSlHGdGXuVaun9jG-3" target="r2QPJSlHGdGXuVaun9jG-37">
          <mxGeometry width="160" relative="1" as="geometry">
            <mxPoint x="350" y="750" as="sourcePoint" />
            <mxPoint x="510" y="750" as="targetPoint" />
          </mxGeometry>
        </mxCell>
        <mxCell id="r2QPJSlHGdGXuVaun9jG-44" value="Actualizar estado&lt;br&gt;animal" style="ellipse;whiteSpace=wrap;html=1;" vertex="1" parent="1">
          <mxGeometry x="560" y="810" width="140" height="70" as="geometry" />
        </mxCell>
        <mxCell id="r2QPJSlHGdGXuVaun9jG-45" value="" style="edgeStyle=none;html=1;endArrow=none;verticalAlign=bottom;rounded=0;" edge="1" parent="1" source="r2QPJSlHGdGXuVaun9jG-3" target="r2QPJSlHGdGXuVaun9jG-44">
          <mxGeometry width="160" relative="1" as="geometry">
            <mxPoint x="190" y="810" as="sourcePoint" />
            <mxPoint x="350" y="810" as="targetPoint" />
          </mxGeometry>
        </mxCell>
        <mxCell id="r2QPJSlHGdGXuVaun9jG-51" value="Condition: Si registro es protectora&#xa;extension point: Protectora" style="shape=note;size=15;spacingLeft=5;align=left;whiteSpace=wrap;" vertex="1" parent="1">
          <mxGeometry x="740" y="200" width="230" height="40" as="geometry" />
        </mxCell>
        <mxCell id="r2QPJSlHGdGXuVaun9jG-52" value="&amp;lt;&amp;lt;extend&amp;gt;&amp;gt;" style="align=right;html=1;verticalAlign=bottom;rounded=0;labelBackgroundColor=none;endArrow=open;endSize=12;dashed=1;" edge="1" parent="1" source="r2QPJSlHGdGXuVaun9jG-18" target="r2QPJSlHGdGXuVaun9jG-54">
          <mxGeometry x="-0.2941" y="-5" relative="1" as="geometry">
            <mxPoint x="599.9999999999936" y="445" as="targetPoint" />
            <mxPoint x="890" y="260" as="sourcePoint" />
            <mxPoint as="offset" />
          </mxGeometry>
        </mxCell>
        <mxCell id="r2QPJSlHGdGXuVaun9jG-53" value="" style="edgeStyle=none;html=1;endArrow=none;rounded=0;labelBackgroundColor=none;dashed=1;" edge="1" source="r2QPJSlHGdGXuVaun9jG-51" parent="1">
          <mxGeometry relative="1" as="geometry">
            <mxPoint x="730" y="140" as="targetPoint" />
            <mxPoint x="895" y="390" as="sourcePoint" />
          </mxGeometry>
        </mxCell>
        <mxCell id="r2QPJSlHGdGXuVaun9jG-54" value="&lt;br&gt;&lt;br&gt;Usuario&lt;br&gt;Protectora" style="html=1;shape=mxgraph.sysml.useCaseExtPt;whiteSpace=wrap;align=center;" vertex="1" parent="1">
          <mxGeometry x="470" y="90" width="160" height="80" as="geometry" />
        </mxCell>
        <mxCell id="r2QPJSlHGdGXuVaun9jG-55" value="Registrarse" style="resizable=0;html=1;verticalAlign=middle;align=center;labelBackgroundColor=none;fontStyle=1;" connectable="0" vertex="1" parent="r2QPJSlHGdGXuVaun9jG-54">
          <mxGeometry x="80" y="17" as="geometry" />
        </mxCell>
        <mxCell id="r2QPJSlHGdGXuVaun9jG-63" value="Login" style="ellipse;whiteSpace=wrap;html=1;" vertex="1" parent="1">
          <mxGeometry x="480" y="525" width="140" height="70" as="geometry" />
        </mxCell>
        <mxCell id="r2QPJSlHGdGXuVaun9jG-64" value="&amp;lt;&amp;lt;include&amp;gt;&amp;gt;" style="edgeStyle=none;html=1;endArrow=open;verticalAlign=bottom;dashed=1;labelBackgroundColor=none;rounded=0;" edge="1" parent="1" source="r2QPJSlHGdGXuVaun9jG-27" target="r2QPJSlHGdGXuVaun9jG-63">
          <mxGeometry width="160" relative="1" as="geometry">
            <mxPoint x="1030" y="350" as="sourcePoint" />
            <mxPoint x="1190" y="350" as="targetPoint" />
          </mxGeometry>
        </mxCell>
        <mxCell id="r2QPJSlHGdGXuVaun9jG-66" value="" style="edgeStyle=none;html=1;endArrow=none;verticalAlign=bottom;rounded=0;" edge="1" parent="1" source="r2QPJSlHGdGXuVaun9jG-3" target="r2QPJSlHGdGXuVaun9jG-63">
          <mxGeometry width="160" relative="1" as="geometry">
            <mxPoint x="150" y="630" as="sourcePoint" />
            <mxPoint x="310" y="630" as="targetPoint" />
          </mxGeometry>
        </mxCell>
        <mxCell id="r2QPJSlHGdGXuVaun9jG-67" value="" style="edgeStyle=none;html=1;endArrow=none;verticalAlign=bottom;rounded=0;" edge="1" parent="1" source="r2QPJSlHGdGXuVaun9jG-1" target="r2QPJSlHGdGXuVaun9jG-63">
          <mxGeometry width="160" relative="1" as="geometry">
            <mxPoint x="820" y="450" as="sourcePoint" />
            <mxPoint x="980" y="450" as="targetPoint" />
          </mxGeometry>
        </mxCell>
        <mxCell id="r2QPJSlHGdGXuVaun9jG-68" value="&amp;lt;&amp;lt;include&amp;gt;&amp;gt;" style="edgeStyle=none;html=1;endArrow=open;verticalAlign=bottom;dashed=1;labelBackgroundColor=none;rounded=0;" edge="1" parent="1" source="r2QPJSlHGdGXuVaun9jG-37" target="r2QPJSlHGdGXuVaun9jG-63">
          <mxGeometry x="-0.9056" y="33" width="160" relative="1" as="geometry">
            <mxPoint x="690" y="670" as="sourcePoint" />
            <mxPoint x="850" y="670" as="targetPoint" />
            <mxPoint as="offset" />
          </mxGeometry>
        </mxCell>
        <mxCell id="r2QPJSlHGdGXuVaun9jG-69" value="&amp;lt;&amp;lt;include&amp;gt;&amp;gt;" style="edgeStyle=none;html=1;endArrow=open;verticalAlign=bottom;dashed=1;labelBackgroundColor=none;rounded=0;" edge="1" parent="1" source="r2QPJSlHGdGXuVaun9jG-44" target="r2QPJSlHGdGXuVaun9jG-63">
          <mxGeometry x="-0.6154" y="-20" width="160" relative="1" as="geometry">
            <mxPoint x="260" y="910" as="sourcePoint" />
            <mxPoint x="420" y="910" as="targetPoint" />
            <mxPoint as="offset" />
          </mxGeometry>
        </mxCell>
        <mxCell id="r2QPJSlHGdGXuVaun9jG-70" value="" style="group" vertex="1" connectable="0" parent="1">
          <mxGeometry x="810" y="95" width="300" height="70" as="geometry" />
        </mxCell>
        <mxCell id="r2QPJSlHGdGXuVaun9jG-15" value="Staff" style="shape=umlActor;verticalLabelPosition=bottom;verticalAlign=top;html=1;outlineConnect=0;" vertex="1" parent="r2QPJSlHGdGXuVaun9jG-70">
          <mxGeometry x="270" y="5" width="30" height="60" as="geometry" />
        </mxCell>
        <mxCell id="r2QPJSlHGdGXuVaun9jG-18" value="Validar&lt;br&gt;protectora" style="ellipse;whiteSpace=wrap;html=1;" vertex="1" parent="r2QPJSlHGdGXuVaun9jG-70">
          <mxGeometry width="140" height="70" as="geometry" />
        </mxCell>
        <mxCell id="r2QPJSlHGdGXuVaun9jG-22" value="" style="edgeStyle=none;html=1;endArrow=none;verticalAlign=bottom;rounded=0;" edge="1" parent="r2QPJSlHGdGXuVaun9jG-70" source="r2QPJSlHGdGXuVaun9jG-18" target="r2QPJSlHGdGXuVaun9jG-15">
          <mxGeometry width="160" relative="1" as="geometry">
            <mxPoint x="30" y="-45" as="sourcePoint" />
            <mxPoint x="190" y="-45" as="targetPoint" />
          </mxGeometry>
        </mxCell>
        <mxCell id="r2QPJSlHGdGXuVaun9jG-72" value="" style="edgeStyle=none;html=1;endArrow=none;verticalAlign=bottom;rounded=0;" edge="1" parent="1" source="r2QPJSlHGdGXuVaun9jG-71" target="r2QPJSlHGdGXuVaun9jG-54">
          <mxGeometry width="160" relative="1" as="geometry">
            <mxPoint x="260" y="120" as="sourcePoint" />
            <mxPoint x="260" y="250" as="targetPoint" />
          </mxGeometry>
        </mxCell>
        <mxCell id="r2QPJSlHGdGXuVaun9jG-74" value="" style="edgeStyle=none;html=1;endArrow=none;verticalAlign=bottom;rounded=0;" edge="1" parent="1" source="r2QPJSlHGdGXuVaun9jG-71" target="r2QPJSlHGdGXuVaun9jG-16">
          <mxGeometry width="160" relative="1" as="geometry">
            <mxPoint x="270" y="210" as="sourcePoint" />
            <mxPoint x="430" y="210" as="targetPoint" />
          </mxGeometry>
        </mxCell>
        <mxCell id="r2QPJSlHGdGXuVaun9jG-80" value="" style="edgeStyle=none;html=1;endArrow=block;endFill=0;endSize=12;verticalAlign=bottom;rounded=0;" edge="1" parent="1" source="r2QPJSlHGdGXuVaun9jG-77" target="r2QPJSlHGdGXuVaun9jG-71">
          <mxGeometry width="160" relative="1" as="geometry">
            <mxPoint x="190" y="320" as="sourcePoint" />
            <mxPoint x="350" y="320" as="targetPoint" />
          </mxGeometry>
        </mxCell>
        <mxCell id="r2QPJSlHGdGXuVaun9jG-82" value="" style="group" vertex="1" connectable="0" parent="1">
          <mxGeometry x="185" y="165" width="70" height="90" as="geometry" />
        </mxCell>
        <mxCell id="r2QPJSlHGdGXuVaun9jG-71" value="" style="shape=umlActor;html=1;verticalLabelPosition=bottom;verticalAlign=top;align=center;" vertex="1" parent="r2QPJSlHGdGXuVaun9jG-82">
          <mxGeometry x="20" y="30" width="30" height="60" as="geometry" />
        </mxCell>
        <mxCell id="r2QPJSlHGdGXuVaun9jG-81" value="Invitado" style="text;html=1;align=center;verticalAlign=middle;resizable=0;points=[];autosize=1;strokeColor=none;fillColor=none;" vertex="1" parent="r2QPJSlHGdGXuVaun9jG-82">
          <mxGeometry width="70" height="30" as="geometry" />
        </mxCell>
      </root>
    </mxGraphModel>
  </diagram>
</mxfile>
